<svg width="498" height="499" viewBox="0 0 498 499" fill="none" xmlns="http://www.w3.org/2000/svg">
<path d="M261.11 303.11C264.63 316.82 268.65 330.07 271.35 343.58C274.37 358.69 274.19 373.97 268.81 388.69C264.69 399.96 258.15 409.61 246.98 414.91C236.19 420.03 225.25 420.26 215.31 412.68C206.24 405.76 204.9 394.96 211.82 386.61C213.52 384.56 215.89 383.05 218.23 381.53C213.71 385.72 212.41 390.83 213.35 396.66C214.96 406.67 226.87 412.29 235.26 406.67C239.87 403.58 241.87 398.61 241.94 393.01C242.03 386 239.39 379.83 235.69 374.12C232.83 369.71 229.71 365.44 226.38 361.37C217.43 350.42 211.62 338.17 210.23 324C208.32 304.42 211.86 286.19 223.99 270.25C226.07 267.52 228.83 265.26 231.44 262.98C233.68 261.03 236.17 259.35 238.2 257.82C239.83 260.01 241.46 262.2 243.09 264.39C238.77 268.11 238.65 268.94 241.18 276.53C240.34 278.47 239.37 279.83 239.2 281.28C238.64 286.02 238.32 290.8 238 295.56C237.45 303.72 247.45 312.4 256.06 307.65C257.03 307.11 257.9 306.36 258.74 305.61C259.5 304.93 260.16 304.13 261.1 303.13L261.11 303.11ZM237.23 299.95C236.96 299.93 236.7 299.92 236.43 299.9C236.08 300.67 235.5 301.42 235.42 302.22C235.07 305.5 234.44 308.83 234.68 312.08C235.63 325.05 239.67 337.25 244.41 349.27C248.57 359.82 252.59 370.44 253.97 381.8C254.36 385.05 254.3 388.36 254.45 391.64C255.08 387.7 255.52 383.75 255.62 379.8C255.92 368.22 253.3 357.17 249.51 346.3C245.64 335.22 241.97 324.09 240.24 312.4C239.62 308.19 238.26 304.1 237.24 299.95H237.23Z" fill="#1CD0BB"/>
<path d="M213.91 113.65C214.71 117.03 215.51 120.43 216.27 123.61C212.9 126.13 209.21 128.58 205.87 131.43C194.62 141.03 188.71 153.56 186.76 168.01C185.77 175.33 185.39 182.71 187.72 189.93C187.88 190.42 187.75 191.34 187.4 191.62C182.57 195.53 182.74 200.68 184.2 205.84C185.77 211.35 187.87 216.71 189.76 222.18C178.23 228.63 180.21 242.16 191.01 247.52C184.7 255.03 184.14 264.4 182.84 273.46C182.18 278.07 182.26 282.78 181.97 288.22C160.76 268.99 149.16 245.45 147.49 217.47C144.88 173.67 171.28 130.8 213.9 113.63L213.91 113.65Z" fill="#1CD0BB"/>
<path d="M319.02 287.41C319.93 272.96 317.3 259.61 309.56 247.34C314.44 244.8 318.37 241.26 318.68 235.3C318.98 229.44 315.86 225.36 310.69 222.43C312.32 218.25 314.09 214.17 315.49 209.97C316.42 207.16 317.09 204.2 317.4 201.26C317.78 197.63 316.37 194.46 313.86 191.76C313.37 191.24 313.01 190.15 313.2 189.52C317.6 175.41 314.23 162.23 307.98 149.63C303.25 140.1 296.72 131.85 287.51 126.1C286.42 125.42 285.26 124.86 284.34 124.36C285.18 120.83 285.98 117.42 286.9 113.56C322.26 129.85 344.91 156.25 351.88 195.17C358.72 233.33 339.88 270.31 319.03 287.42L319.02 287.41Z" fill="#1CD0BB"/>
<path d="M242.3 231.44C239.89 226.25 239.73 224.35 241.42 221.79C248.59 231.87 250.73 232.08 259.86 223.55C260.693 224.783 260.573 227.343 259.5 231.23C272.76 235.45 282.47 244.58 290.1 255.73C297.7 266.83 302.51 279.3 304.61 292.67C304.57 264.78 293.95 242.45 269.37 226.89C271.12 226.89 272.19 226.86 273.25 226.89C278.67 227.06 282.38 224.37 284.67 219.72C286.47 216.05 287.89 212.18 289.67 207.93C289.67 209.03 289.69 209.82 289.67 210.61C289.49 218.73 290.25 226.65 294.54 233.84C296.53 237.18 298.63 240.46 300.5 243.86C313.02 266.67 315.54 290.26 305.63 314.68C304.3 317.97 302.44 321.04 300.78 324.19C300.45 324.82 299.93 325.35 299.24 326.27C299.24 322.77 299.14 319.69 299.26 316.61C299.85 300.23 295.61 285.13 286.87 271.36C280.66 261.57 271.65 254.92 261.29 249.97C255.78 247.34 253.69 245.64 250.62 241.55C248.33 245.63 244.3 247.38 240.42 249.25C233 252.82 226.11 257.1 220.39 263.15C211.25 272.81 206.04 284.35 203.68 297.31C201.94 306.88 201.88 316.48 203.17 326.11C203.2 326.31 203.09 326.53 202.96 327.1C202.35 326.35 201.85 325.87 201.48 325.29C186.64 301.66 185.23 277.12 196.88 251.87C199.72 245.71 203.15 239.8 206.63 233.96C211.03 226.59 211.74 218.55 211.64 210.28C211.64 209.79 211.59 209.31 211.58 208.82C211.58 208.66 211.64 208.5 211.58 208.78C213.5 212.97 215.22 217.67 217.71 221.92C220.55 226.78 225.46 227.89 230.92 227.33C219.48 234.01 211.2 243.53 204.84 254.83C198.42 266.23 195.7 278.51 196.75 291.65C196.97 290.77 197.21 289.88 197.41 288.99C200.39 275.36 205.57 262.67 214.11 251.58C220.21 243.67 227.54 237.08 236.88 233.09C238.57 232.37 240.4 231.98 242.3 231.39V231.44Z" fill="#1CD0BB"/>
<path d="M234.73 124.89C238.42 122.82 242.4 122.03 246.56 122.08C247.12 122.08 247.82 122.45 248.22 122.87C258.54 133.48 268.82 144.13 280.1 153.77C286.66 159.37 293.23 165.03 297.2 173C297.42 172.87 297.64 172.74 297.86 172.61C295.7 168.59 293.71 164.48 291.35 160.58C285.79 151.39 277.58 144.8 269.34 138.18C263.19 133.23 257.48 127.72 251.58 122.45C251.67 122.17 251.77 121.89 251.86 121.61C255 122.01 258.21 122.11 261.27 122.87C278.78 127.2 292.51 136.75 301.11 152.88C306.93 163.79 308.06 175.51 306.03 187.61C305.87 188.57 305.81 189.56 305.51 190.47C304.69 192.99 304.74 194.88 307.32 196.71C310 198.61 310.17 201.87 309.38 204.94C308.86 206.96 308.04 208.92 307.25 210.87C305.55 215.06 303.9 219.26 302 223.36C301.27 224.94 299.94 226.23 298.88 227.66C298.49 227.54 298.11 227.41 297.73 227.29C297.73 222.25 297.5 217.2 297.79 212.18C298.15 205.8 297.6 199.56 295.99 193.4C293.24 182.88 286.47 175.36 277.91 169.19C272.07 164.97 266.09 160.93 260.34 156.6C250.4 149.11 242.86 139.59 237.29 128.47C236.7 127.3 235.74 126.31 234.72 124.93L234.73 124.89Z" fill="#1CD0BB"/>
<path d="M233.69 124.99C233.13 127.11 233.677 130.923 235.33 136.43C224.09 140.58 208.36 158.45 205.25 170.91C213.41 157.49 226.6 149.9 237.28 139.35C240.29 143.58 243.07 147.5 245.96 151.56C241.15 156.64 235.1 160.38 229.18 164.28C222.12 168.92 215.31 173.79 210.29 180.81C205.89 186.95 203.67 193.83 203.27 201.19C202.89 208.3 203.26 215.45 203.24 222.58C203.24 224.1 202.98 225.62 202.76 227.95C201.42 226.7 200.23 226.04 199.72 225.04C196.04 217.9 192.94 210.52 191.4 202.58C190.96 200.3 191.68 198.1 193.83 197.25C196.2 196.32 195.86 194.87 195.62 193.04C194.98 188.08 193.97 183.09 194.01 178.13C194.25 154.12 206.14 137.49 227.22 126.93C228.51 126.28 229.95 125.92 231.33 125.49C232 125.28 232.71 125.2 233.7 124.99H233.69Z" fill="#1CD0BB"/>
<path d="M279.62 359.83C279.53 339.92 274.09 321.73 266.33 304.06C263.91 298.56 262.28 292.83 261.79 286.74C261.56 283.84 260.34 281.03 259.6 278.17C259.47 277.69 259.26 277.04 259.47 276.68C261.91 272.44 261.86 268.41 258.83 264.74C260.11 262.56 261.36 260.46 262.73 258.14C263.28 258.52 264.15 259.15 265.05 259.74C277.2 267.79 284.87 278.92 288.76 292.99C291.76 303.81 292.21 314.7 291.35 325.76C290.51 336.54 285.86 350.31 279.64 359.83H279.62Z" fill="#1CD0BB"/>
<path d="M277.88 111.18C266.23 97.22 234.49 96.58 222.39 111.32C221.17 103.49 224.88 92.37 233.49 86.95C244.56 79.98 255.83 79.86 266.92 86.56C275.4 91.69 279.63 101.72 277.88 111.17V111.18Z" fill="#1CD0BB"/>
<path d="M276.33 120.66C258.92 112.22 241.76 111.81 224.55 120.9C222.56 118.47 222.55 118.35 224.84 116.23C230.68 110.85 237.75 108.38 245.51 107.77C255.28 107.01 264.75 107.86 273.1 113.74C274.08 114.43 274.97 115.28 275.85 116.1C277.28 117.43 277.71 118.91 276.33 120.65V120.66Z" fill="#1CD0BB"/>
<path d="M244.93 207.91C241.69 201.08 238.55 194.61 231.13 192.32C223.77 190.05 217.35 192.86 211.16 196.39C211.74 191.61 216.9 186.7 221.74 185.07C229.76 182.36 237.29 184.05 242.21 189.64C246.23 194.2 247.23 204.09 244.93 207.91Z" fill="#1CD0BB"/>
<path d="M289.53 196.03C285.27 193.41 280.74 191.78 275.7 191.49C269.04 191.11 263.06 194.38 259.99 200.35C259.14 202 258.3 203.66 257.32 205.23C257.01 205.72 256.13 206.3 255.72 206.17C255.22 206.02 254.64 205.16 254.63 204.59C254.48 196.9 255.91 189.5 264.01 185.64C271.19 182.21 280.6 184.1 285.82 189.98C287.36 191.71 288.63 193.67 290.02 195.53C289.86 195.7 289.7 195.87 289.54 196.04L289.53 196.03Z" fill="#1CD0BB"/>
<path d="M250.4 181.2C246.55 181.22 243.12 177.63 243.13 173.61C243.14 170.03 246.62 166.4 250.01 166.44C253.98 166.48 257.87 170.34 257.85 174.23C257.83 178.2 254.63 181.19 250.41 181.21L250.4 181.2Z" fill="#1CD0BB"/>
<path d="M250.41 292.44C254.06 292.4 257.15 295.08 257.18 298.3C257.21 301.16 254.13 303.98 251.04 303.95C247.81 303.92 244.48 300.88 244.49 297.99C244.51 295.07 247.27 292.47 250.41 292.44Z" fill="#1CD0BB"/>
<path d="M194.27 229.16C196.98 229.18 200.37 231.83 200.27 233.86C200.16 236.09 196.62 239.89 194.65 239.91C191.16 239.94 188.47 237.37 188.52 234.08C188.57 231.16 190.93 229.14 194.27 229.17V229.16Z" fill="#1CD0BB"/>
<path d="M250.42 279.32C254.13 279.34 256.64 281.35 256.66 284.33C256.68 287.13 253.88 289.51 250.67 289.41C247.43 289.31 244.84 286.93 244.88 284.07C244.92 281.14 247.07 279.3 250.41 279.32H250.42Z" fill="#1CD0BB"/>
<path d="M311.83 234.16C311.85 237.25 309.42 240.23 306.81 240.33C304.5 240.42 300.89 236.62 300.91 234.12C300.93 231.77 303.66 229.39 306.42 229.34C309.72 229.27 311.82 231.14 311.83 234.16Z" fill="#1CD0BB"/>
<path d="M250.7 252.34C253.73 252.31 256.71 254.68 256.74 257.14C256.77 259.72 253.85 262.25 250.92 262.19C247.58 262.12 244.91 260 244.9 257.4C244.89 254.78 247.65 252.36 250.7 252.33V252.34Z" fill="#1CD0BB"/>
<path d="M250.82 275.99C247.84 275.96 244.98 273.49 244.98 270.94C244.98 268.45 247.77 266.06 250.66 266.08C254.07 266.1 256.29 267.97 256.22 270.75C256.14 273.93 253.98 276.03 250.82 276V275.99Z" fill="#1CD0BB"/>
<path d="M283.56 199.31C279.42 205.73 273.59 208.24 268.07 206.29C264.8 205.14 261.68 201.78 261.8 199.29C269.05 204.44 276.27 202.02 283.55 199.31H283.56Z" fill="#1CD0BB"/>
<path d="M217.93 199.2C224.69 202.35 231.33 204.55 238.93 199.51C238.54 201.07 238.57 202.2 238.03 202.85C235.21 206.24 231.47 207.57 227.17 206.76C222.83 205.94 219.67 203.42 217.93 199.2Z" fill="#1CD0BB"/>
</svg>
